<svg width="32" height="32" viewBox="0 0 32 32" fill="none" xmlns="http://www.w3.org/2000/svg">
<circle cx="16" cy="16" r="16" fill="#432900"/>
<g filter="url(#filter0_d_150_706)">
<path d="M10.3974 12.334V20.686C10.3734 21.238 10.2714 21.598 10.0914 21.766C9.91142 21.922 9.65342 22 9.31742 22H8.41742C8.15342 22 7.93142 21.952 7.75142 21.856C7.58342 21.748 7.46942 21.592 7.40942 21.388C7.36142 21.184 7.33742 20.908 7.33742 20.56V12.334C7.33742 12.166 7.31342 12.034 7.26542 11.938C7.22942 11.83 7.09742 11.776 6.86942 11.776L6.34742 11.794C6.09542 11.794 5.89742 11.758 5.75342 11.686C5.60942 11.614 5.53742 11.482 5.53742 11.29V9.76C5.53742 9.592 5.61542 9.46 5.77142 9.364C5.93942 9.268 6.14342 9.22 6.38342 9.22H11.3514C11.5914 9.22 11.7894 9.268 11.9454 9.364C12.1134 9.46 12.1974 9.592 12.1974 9.76V11.29C12.1974 11.434 12.1434 11.554 12.0354 11.65C11.9274 11.746 11.7114 11.794 11.3874 11.794L10.8834 11.776C10.7154 11.776 10.5894 11.8 10.5054 11.848C10.4334 11.896 10.3974 12.058 10.3974 12.334ZM16.2955 19.426L18.0595 19.39C18.3235 19.39 18.5275 19.45 18.6715 19.57C18.8275 19.69 18.9055 19.942 18.9055 20.326V20.56C18.9055 20.908 18.8755 21.184 18.8155 21.388C18.7675 21.592 18.6535 21.748 18.4735 21.856C18.3055 21.952 18.0895 22 17.8255 22H13.7575C13.4935 22 13.2715 21.952 13.0915 21.856C12.9235 21.748 12.8095 21.592 12.7495 21.388C12.7015 21.184 12.6775 20.908 12.6775 20.56V10.66C12.6775 10.312 12.7015 10.036 12.7495 9.832C12.8095 9.628 12.9235 9.478 13.0915 9.382C13.2715 9.274 13.4935 9.22 13.7575 9.22H14.6575C14.9215 9.22 15.1375 9.274 15.3055 9.382C15.4855 9.478 15.5995 9.628 15.6475 9.832C15.7075 10.036 15.7375 10.312 15.7375 10.66V18.418C15.7375 18.802 15.7795 19.066 15.8635 19.21C15.9595 19.342 16.1035 19.414 16.2955 19.426ZM19.178 15.43C19.178 13.378 19.652 11.818 20.6 10.75C21.56 9.67 22.928 9.13 24.704 9.13C24.92 9.13 25.088 9.184 25.208 9.292C25.328 9.388 25.388 9.526 25.388 9.706V11.29C25.388 11.458 25.328 11.578 25.208 11.65C25.1 11.71 24.932 11.74 24.704 11.74L24.128 11.704C23.564 11.704 23.138 12.04 22.85 12.712C22.562 13.372 22.418 14.29 22.418 15.466C22.418 16.03 22.454 16.564 22.526 17.068C22.598 17.572 22.7 17.992 22.832 18.328C22.964 18.664 23.132 18.934 23.336 19.138C23.54 19.33 23.78 19.426 24.056 19.426L24.704 19.39C25.16 19.39 25.388 19.666 25.388 20.218V21.424C25.388 21.868 25.16 22.09 24.704 22.09C22.916 22.09 21.548 21.532 20.6 20.416C19.652 19.288 19.178 17.626 19.178 15.43Z" fill="#FFF5E5"/>
</g>
<defs>
<filter id="filter0_d_150_706" x="5.53711" y="9.12988" width="20.8506" height="13.96" filterUnits="userSpaceOnUse" color-interpolation-filters="sRGB">
<feFlood flood-opacity="0" result="BackgroundImageFix"/>
<feColorMatrix in="SourceAlpha" type="matrix" values="0 0 0 0 0 0 0 0 0 0 0 0 0 0 0 0 0 0 127 0" result="hardAlpha"/>
<feOffset dx="1" dy="1"/>
<feComposite in2="hardAlpha" operator="out"/>
<feColorMatrix type="matrix" values="0 0 0 0 0.866667 0 0 0 0 0.0666667 0 0 0 0 0.0666667 0 0 0 1 0"/>
<feBlend mode="normal" in2="BackgroundImageFix" result="effect1_dropShadow_150_706"/>
<feBlend mode="normal" in="SourceGraphic" in2="effect1_dropShadow_150_706" result="shape"/>
</filter>
</defs>
</svg>
